<?xml version="1.0" encoding="utf-8"?>
<?xml-stylesheet type="text/xsl" href="rss1.xsl"?>
<rss version="2.0" xmlns:atom="http://www.w3.org/2005/Atom" xmlns:content="http://purl.org/rss/1.0/modules/content/" xmlns:dc="http://purl.org/dc/elements/1.1/" xmlns:media="http://search.yahoo.com/mrss/">
<channel>
 <title>Getty</title>
 <link>http://www.gettyimg.com/</link>
 <atom:link href="http://www.gettyimg.com/" rel="self" type="application/rss+xml" />

 
                <item>
                <title><![CDATA[【Cinema Center】MOVIE - Challengers (2024) [1080p - AMZN WEBRip - DDP5.1.x265.10bit] {4.1 GB}]]></title>
                <link><![CDATA[https://sharemania.us/threads/challengers-2024-1080p-amzn-webrip-ddp5-1-x265-10bit-4-1-gb.244602/]]></link>
                <description><![CDATA[<article>
<blockquote class="messageText SelectQuoteContainer ugc baseHtml">
<div style="text-align: center"><img src="https://images2.imgbox.com/40/07/RxAxar3D_o.jpg" class="bbCodeImage LbImage" alt="[​IMG]" data-url="https://images2.imgbox.com/40/07/RxAxar3D_o.jpg" style=""><br>
<br>
<b><i><span style="font-size: 18px">Challengers</span></i></b><br>
​</div><div style="text-align: left"><b>Relased:</b> 2024<br>
<b>Genre:</b> Drama​</div><b>Studio: </b>Amazon MGM Studios<br>
Pascal Pictures<br>
Metro-Goldwyn-Mayer<br>
<b>Language: </b>English<br>
<b>Actors: ‎</b> Zendaya, Josh O'Connor, Mike Faist<br>
<b>Director:</b> ‎ Luca Guadagnino<br>
<b>Runtime:</b> 131 min<br>
<b>Rated:</b> R<br>
Filename: CHLLGNRS.rar<br>
Size: 3,97 GB (4.270.734.142 bytes)<br>
<br>
<div style="text-align: center">
<div class="ToggleTriggerAnchor bbCodeSpoilerContainer">
<button type="button" class="button bbCodeSpoilerButton ToggleTrigger Tooltip JsOnly" data-target="> .SpoilerTarget"><span>Spoiler: <span class="SpoilerTitle">Media Info</span></span></button>
<div class="SpoilerTarget bbCodeSpoilerText">Media Info:</div>
</div>
<div class="ToggleTriggerAnchor bbCodeSpoilerContainer">
<button type="button" class="button bbCodeSpoilerButton ToggleTrigger Tooltip JsOnly" data-target="> .SpoilerTarget"><span>Spoiler: <span class="SpoilerTitle">Media Info</span></span></button>
<div class="SpoilerTarget bbCodeSpoilerText">Geral<br>
Format : Matroska<br>
Format version : Version 4<br>
File size : 3.98 GiB<br>
Duration : 2 h 11 min<br>
Overall bit rate : 4 328 kb/s<br>
Frame rate : 23.976 FPS<br>
Movie name : GalaxyRG265 - Challengers.2024.1080p.AMZN.WEBRip.DDP5.1.x265.10bit-GalaxyRG265<br>
Writing application : Lavf60.5.100<br>
Writing library : Lavf60.5.100<br>
Comment : GalaxyRG265 - Challengers.2024.1080p.AMZN.WEBRip.DDP5.1.x265.10bit-GalaxyRG265<br>
ErrorDetectionType : Per level 1<br>
Vídeo<br>
ID : 1<br>
Format : HEVC<br>
Format/Info : High Efficiency Video Coding<br>
Format profile : Main 10@L4@Main<br>
Codec ID : V_MPEGH/ISO/HEVC<br>
Duration : 2 h 11 min<br>
Bit rate : 9 487 kb/s<br>
Width : 1 920 pixels<br>
Height : 1 040 pixels<br>
Display aspect ratio : 1.85:1<br>
Frame rate mode : TConstante<br>
Frame rate : 23.976 (24000/1001) FPS<br>
Color space : YUV<br>
Chroma subsampling : 4:2:0 (Type 0)<br>
Bit depth : 10 bits<br>
Bits/(Pixel*Frame) : 0.198<br>
Stream size : 8.72 GiB<br>
Title : GalaxyRG265 - Challengers.2024.1080p.AMZN.WEBRip.DDP5.1.x265.10bit-GalaxyRG265<br>
Writing library : x265 3.5:[Linux][GCC 10.2.1][64 bit] 10bit<br>
<br>
Language : Inglês<br>
Default : Sim<br>
Forced : Não<br>
Color range : Limited<br>
Color primaries : BT.709<br>
Transfer characteristics : BT.709<br>
Matrix coefficients : BT.709<br>
Áudio<br>
ID : 2<br>
Format : E-AC-3<br>
Format/Info : Enhanced AC-3<br>
Commercial name : Dolby Digital Plus<br>
Codec ID : A_EAC3<br>
Duration : 2 h 11 min<br>
Bit rate mode : Constante<br>
Bit rate : 384 kb/s<br>
Channel(s) : 6 canais<br>
Channel layout : L R C LFE Ls Rs<br>
Sampling rate : 48.0 kHz<br>
Frame rate : 31.250 FPS (1536 SPF)<br>
Bit depth : 32 bits<br>
Compression mode : Lossy<br>
Delay relative to video : 11 ms<br>
Stream size : 721 MiB (18%)<br>
Title : GalaxyRG265 - Challengers.2024.1080p.AMZN.WEBRip.DDP5.1.x265.10bit-GalaxyRG265<br>
Writing library : Lavc60.14.101 eac3<br>
Language : Inglês<br>
Service kind : Complete Main<br>
Default : Sim<br>
Forced : Não<br>
Dialog Normalization : -31 dB<br>
dialnorm_Average : -31 dB<br>
dialnorm_Minimum : -31 dB<br>
dialnorm_Maximum : -31 dB<br>
Texto #1<br>
ID : 3<br>
Format : UTF-8<br>
Codec ID : S_TEXT/UTF8<br>
Codec ID/Info : UTF-8 Plain Text<br>
Duration : 2 h 7 min<br>
Bit rate : 50 b/s<br>
Frame rate : 0.199 FPS<br>
Count of elements : 1520<br>
Stream size : 46.2 KiB (0%)<br>
Title : GalaxyRG256 - Challengers.2024.1080p.AMZN.WEBRip.DDP5.1.x265.10bit-GalaxyRG265<br>
Language : Inglês<br>
Default : Sim<br>
Forced : Não<br>
Texto #2<br>
ID : 4<br>
Format : UTF-8<br>
Codec ID : S_TEXT/UTF8<br>
Codec ID/Info : UTF-8 Plain Text<br>
Duration : 2 h 7 min<br>
Bit rate : 60 b/s<br>
Frame rate : 0.238 FPS<br>
Count of elements : 1815<br>
Stream size : 56.7 KiB (0%)<br>
Title : SDH<br>
Language : Inglês<br>
Default : Não<br>
Forced : Não<br>
Texto #3<br>
ID : 5<br>
Format : UTF-8<br>
Codec ID : S_TEXT/UTF8<br>
Codec ID/Info : UTF-8 Plain Text<br>
Duration : 2 h 10 min<br>
Bit rate : 64 b/s<br>
Frame rate : 0.179 FPS<br>
Count of elements : 1406<br>
Stream size : 61.4 KiB (0%)<br>
Language : Búlgaro<br>
Default : Não<br>
Forced : Não<br>
Texto #4<br>
ID : 6<br>
Format : UTF-8<br>
Codec ID : S_TEXT/UTF8<br>
Codec ID/Info : UTF-8 Plain Text<br>
Duration : 2 h 10 min<br>
Bit rate : 35 b/s<br>
Frame rate : 0.179 FPS<br>
Count of elements : 1407<br>
Stream size : 34.0 KiB (0%)<br>
Title : Traditional<br>
Language : Chinês<br>
Default : Não<br>
Forced : Não<br>
Texto #5<br>
ID : 7<br>
Format : UTF-8<br>
Codec ID : S_TEXT/UTF8<br>
Codec ID/Info : UTF-8 Plain Text<br>
Duration : 2 h 10 min<br>
Bit rate : 41 b/s<br>
Frame rate : 0.176 FPS<br>
Count of elements : 1385<br>
Stream size : 40.0 KiB (0%)<br>
Language : Tcheco<br>
Default : Não<br>
Forced : Não<br>
Texto #6<br>
ID : 8<br>
Format : UTF-8<br>
Codec ID : S_TEXT/UTF8<br>
Codec ID/Info : UTF-8 Plain Text<br>
Duration : 2 h 10 min<br>
Bit rate : 37 b/s<br>
Frame rate : 0.116 FPS<br>
Count of elements : 912<br>
Stream size : 36.1 KiB (0%)<br>
Language : Danish<br>
Default : Não<br>
Forced : Não<br>
Texto #7<br>
ID : 9<br>
Format : UTF-8<br>
Codec ID : S_TEXT/UTF8<br>
Codec ID/Info : UTF-8 Plain Text<br>
Duration : 2 h 10 min<br>
Bit rate : 43 b/s<br>
Frame rate : 0.140 FPS<br>
Count of elements : 1102<br>
Stream size : 41.6 KiB (0%)<br>
Language : Alemão<br>
Default : Não<br>
Forced : Não<br>
Texto #8<br>
ID : 10<br>
Format : UTF-8<br>
Codec ID : S_TEXT/UTF8<br>
Codec ID/Info : UTF-8 Plain Text<br>
Duration : 2 h 10 min<br>
Bit rate : 64 b/s<br>
Frame rate : 0.176 FPS<br>
Count of elements : 1385<br>
Stream size : 61.3 KiB (0%)<br>
Language : Grego<br>
Default : Não<br>
Forced : Não<br>
Texto #9<br>
ID : 11<br>
Format : UTF-8<br>
Codec ID : S_TEXT/UTF8<br>
Codec ID/Info : UTF-8 Plain Text<br>
Duration : 2 h 10 min<br>
Bit rate : 42 b/s<br>
Frame rate : 0.176 FPS<br>
Count of elements : 1385<br>
Stream size : 40.8 KiB (0%)<br>
Title : Latin American<br>
Language : Espanhol<br>
Default : Não<br>
Forced : Não<br>
Texto #10<br>
ID : 12<br>
Format : UTF-8<br>
Codec ID : S_TEXT/UTF8<br>
Codec ID/Info : UTF-8 Plain Text<br>
Duration : 2 h 10 min<br>
Bit rate : 39 b/s<br>
Frame rate : 0.170 FPS<br>
Count of elements : 1334<br>
Stream size : 38.0 KiB (0%)<br>
Language : Espanhol<br>
Default : Não<br>
Forced : Não<br>
Texto #11<br>
ID : 13<br>
Format : UTF-8<br>
Codec ID : S_TEXT/UTF8<br>
Codec ID/Info : UTF-8 Plain Text<br>
Duration : 2 h 10 min<br>
Bit rate : 40 b/s<br>
Frame rate : 0.169 FPS<br>
Count of elements : 1325<br>
Stream size : 39.0 KiB (0%)<br>
Language : Estoniano<br>
Default : Não<br>
Forced : Não<br>
Texto #12<br>
ID : 14<br>
Format : UTF-8<br>
Codec ID : S_TEXT/UTF8<br>
Codec ID/Info : UTF-8 Plain Text<br>
Duration : 2 h 10 min<br>
Bit rate : 38 b/s<br>
Frame rate : 0.181 FPS<br>
Count of elements : 1424<br>
Stream size : 37.1 KiB (0%)<br>
Language : Finnish<br>
Default : Não<br>
Forced : Não<br>
Texto #13<br>
ID : 15<br>
Format : UTF-8<br>
Codec ID : S_TEXT/UTF8<br>
Codec ID/Info : UTF-8 Plain Text<br>
Duration : 2 h 10 min<br>
Bit rate : 49 b/s<br>
Frame rate : 0.209 FPS<br>
Count of elements : 1645<br>
Stream size : 47.2 KiB (0%)<br>
Title : Canadian<br>
Language : Francês<br>
Default : Não<br>
Forced : Não<br>
Texto #14<br>
ID : 16<br>
Format : UTF-8<br>
Codec ID : S_TEXT/UTF8<br>
Codec ID/Info : UTF-8 Plain Text<br>
Duration : 2 h 6 min<br>
Bit rate : 35 b/s<br>
Frame rate : 0.161 FPS<br>
Count of elements : 1226<br>
Stream size : 32.4 KiB (0%)<br>
Language : Francês<br>
Default : Não<br>
Forced : Não<br>
Texto #15<br>
ID : 17<br>
Format : UTF-8<br>
Codec ID : S_TEXT/UTF8<br>
Codec ID/Info : UTF-8 Plain Text<br>
Duration : 2 h 10 min<br>
Bit rate : 66 b/s<br>
Frame rate : 0.176 FPS<br>
Count of elements : 1386<br>
Stream size : 63.2 KiB (0%)<br>
Language : Hebreu<br>
Default : Não<br>
Forced : Não<br>
Texto #16<br>
ID : 18<br>
Format : UTF-8<br>
Codec ID : S_TEXT/UTF8<br>
Codec ID/Info : UTF-8 Plain Text<br>
Duration : 2 h 10 min<br>
Bit rate : 102 b/s<br>
Frame rate : 0.179 FPS<br>
Count of elements : 1407<br>
Stream size : 97.3 KiB (0%)<br>
Language : Hindi<br>
Default : Não<br>
Forced : Não<br>
Texto #17<br>
ID : 19<br>
Format : UTF-8<br>
Codec ID : S_TEXT/UTF8<br>
Codec ID/Info : UTF-8 Plain Text<br>
Duration : 2 h 10 min<br>
Bit rate : 35 b/s<br>
Frame rate : 0.124 FPS<br>
Count of elements : 972<br>
Stream size : 34.3 KiB (0%)<br>
Language : Húngaro<br>
Default : Não<br>
Forced : Não<br>
Texto #18<br>
ID : 20<br>
Format : UTF-8<br>
Codec ID : S_TEXT/UTF8<br>
Codec ID/Info : UTF-8 Plain Text<br>
Duration : 2 h 10 min<br>
Bit rate : 41 b/s<br>
Frame rate : 0.174 FPS<br>
Count of elements : 1366<br>
Stream size : 39.5 KiB (0%)<br>
Language : Indonesian<br>
Default : Não<br>
Forced : Não<br>
Texto #19<br>
ID : 21<br>
Format : UTF-8<br>
Codec ID : S_TEXT/UTF8<br>
Codec ID/Info : UTF-8 Plain Text<br>
Duration : 2 h 6 min<br>
Bit rate : 40 b/s<br>
Frame rate : 0.140 FPS<br>
Count of elements : 1066<br>
Stream size : 37.5 KiB (0%)<br>
Language : Italiano<br>
Default : Não<br>
Forced : Não<br>
Texto #20<br>
ID : 22<br>
Format : UTF-8<br>
Codec ID : S_TEXT/UTF8<br>
Codec ID/Info : UTF-8 Plain Text<br>
Duration : 2 h 10 min<br>
Bit rate : 33 b/s<br>
Frame rate : 0.153 FPS<br>
Count of elements : 1203<br>
Stream size : 31.6 KiB (0%)<br>
Language : Japonês<br>
Default : Não<br>
Forced : Não<br>
Texto #21<br>
ID : 23<br>
Format : UTF-8<br>
Codec ID : S_TEXT/UTF8<br>
Codec ID/Info : UTF-8 Plain Text<br>
Duration : 2 h 10 min<br>
Bit rate : 36 b/s<br>
Frame rate : 0.172 FPS<br>
Count of elements : 1355<br>
Stream size : 35.2 KiB (0%)<br>
Language : Coreano<br>
Default : Não<br>
Forced : Não<br>
Texto #22<br>
ID : 24<br>
Format : UTF-8<br>
Codec ID : S_TEXT/UTF8<br>
Codec ID/Info : UTF-8 Plain Text<br>
Duration : 2 h 10 min<br>
Bit rate : 45 b/s<br>
Frame rate : 0.178 FPS<br>
Count of elements : 1400<br>
Stream size : 43.1 KiB (0%)<br>
Language : Lituâno<br>
Default : Não<br>
Forced : Não<br>
Texto #23<br>
ID : 25<br>
Format : UTF-8<br>
Codec ID : S_TEXT/UTF8<br>
Codec ID/Info : UTF-8 Plain Text<br>
Duration : 2 h 10 min<br>
Bit rate : 41 b/s<br>
Frame rate : 0.193 FPS<br>
Count of elements : 1519<br>
Stream size : 39.1 KiB (0%)<br>
Language : Letão<br>
Default : Não<br>
Forced : Não<br>
Texto #24<br>
ID : 26<br>
Format : UTF-8<br>
Codec ID : S_TEXT/UTF8<br>
Codec ID/Info : UTF-8 Plain Text<br>
Duration : 2 h 10 min<br>
Bit rate : 44 b/s<br>
Frame rate : 0.190 FPS<br>
Count of elements : 1493<br>
Stream size : 42.4 KiB (0%)<br>
Language : Malaio<br>
Default : Não<br>
Forced : Não<br>
Texto #25<br>
ID : 27<br>
Format : UTF-8<br>
Codec ID : S_TEXT/UTF8<br>
Codec ID/Info : UTF-8 Plain Text<br>
Duration : 2 h 10 min<br>
Bit rate : 32 b/s<br>
Frame rate : 0.117 FPS<br>
Count of elements : 917<br>
Stream size : 31.4 KiB (0%)<br>
Language : Holandês<br>
Default : Não<br>
Forced : Não<br>
Texto #26<br>
ID : 28<br>
Format : UTF-8<br>
Codec ID : S_TEXT/UTF8<br>
Codec ID/Info : UTF-8 Plain Text<br>
Duration : 2 h 10 min<br>
Bit rate : 38 b/s<br>
Frame rate : 0.126 FPS<br>
Count of elements : 988<br>
Stream size : 37.0 KiB (0%)<br>
Language : Norueguês<br>
Default : Não<br>
Forced : Não<br>
Texto #27<br>
ID : 29<br>
Format : UTF-8<br>
Codec ID : S_TEXT/UTF8<br>
Codec ID/Info : UTF-8 Plain Text<br>
Duration : 2 h 10 min<br>
Bit rate : 39 b/s<br>
Frame rate : 0.175 FPS<br>
Count of elements : 1378<br>
Stream size : 37.3 KiB (0%)<br>
Language : Polonês<br>
Default : Não<br>
Forced : Não<br>
Texto #28<br>
ID : 30<br>
Format : UTF-8<br>
Codec ID : S_TEXT/UTF8<br>
Codec ID/Info : UTF-8 Plain Text<br>
Duration : 2 h 10 min<br>
Bit rate : 40 b/s<br>
Frame rate : 0.174 FPS<br>
Count of elements : 1366<br>
Stream size : 38.8 KiB (0%)<br>
Title : Brazilian<br>
Language : Português<br>
Default : Não<br>
Forced : Não<br>
Texto #29<br>
ID : 31<br>
Format : UTF-8<br>
Codec ID : S_TEXT/UTF8<br>
Codec ID/Info : UTF-8 Plain Text<br>
Duration : 2 h 10 min<br>
Bit rate : 44 b/s<br>
Frame rate : 0.173 FPS<br>
Count of elements : 1358<br>
Stream size : 42.4 KiB (0%)<br>
Language : Português<br>
Default : Não<br>
Forced : Não<br>
Texto #30<br>
ID : 32<br>
Format : UTF-8<br>
Codec ID : S_TEXT/UTF8<br>
Codec ID/Info : UTF-8 Plain Text<br>
Duration : 2 h 10 min<br>
Bit rate : 33 b/s<br>
Frame rate : 0.132 FPS<br>
Count of elements : 1039<br>
Stream size : 32.0 KiB (0%)<br>
Language : Eslovaco<br>
Default : Não<br>
Forced : Não<br>
Texto #31<br>
ID : 33<br>
Format : UTF-8<br>
Codec ID : S_TEXT/UTF8<br>
Codec ID/Info : UTF-8 Plain Text<br>
Duration : 2 h 10 min<br>
Bit rate : 38 b/s<br>
Frame rate : 0.131 FPS<br>
Count of elements : 1031<br>
Stream size : 36.6 KiB (0%)<br>
Language : Eslovêno<br>
Default : Não<br>
Forced : Não<br>
Texto #32<br>
ID : 34<br>
Format : UTF-8<br>
Codec ID : S_TEXT/UTF8<br>
Codec ID/Info : UTF-8 Plain Text<br>
Duration : 2 h 10 min<br>
Bit rate : 36 b/s<br>
Frame rate : 0.149 FPS<br>
Count of elements : 1172<br>
Stream size : 34.5 KiB (0%)<br>
Language : Suéco<br>
Default : Não<br>
Forced : Não<br>
Texto #33<br>
ID : 35<br>
Format : UTF-8<br>
Codec ID : S_TEXT/UTF8<br>
Codec ID/Info : UTF-8 Plain Text<br>
Duration : 2 h 10 min<br>
Bit rate : 120 b/s<br>
Frame rate : 0.179 FPS<br>
Count of elements : 1407<br>
Stream size : 115 KiB (0%)<br>
Language : Tamil<br>
Default : Não<br>
Forced : Não<br>
Texto #34<br>
ID : 36<br>
Format : UTF-8<br>
Codec ID : S_TEXT/UTF8<br>
Codec ID/Info : UTF-8 Plain Text<br>
Duration : 2 h 10 min<br>
Bit rate : 105 b/s<br>
Frame rate : 0.179 FPS<br>
Count of elements : 1407<br>
Stream size : 100 KiB (0%)<br>
Language : Telugu<br>
Default : Não<br>
Forced : Não<br>
Texto #35<br>
ID : 37<br>
Format : UTF-8<br>
Codec ID : S_TEXT/UTF8<br>
Codec ID/Info : UTF-8 Plain Text<br>
Duration : 2 h 10 min<br>
Bit rate : 98 b/s<br>
Frame rate : 0.177 FPS<br>
Count of elements : 1391<br>
Stream size : 93.7 KiB (0%)<br>
Language : Thai<br>
Default : Não<br>
Forced : Não<br>
Texto #36<br>
ID : 38<br>
Format : UTF-8<br>
Codec ID : S_TEXT/UTF8<br>
Codec ID/Info : UTF-8 Plain Text<br>
Duration : 2 h 10 min<br>
Bit rate : 44 b/s<br>
Frame rate : 0.173 FPS<br>
Count of elements : 1361<br>
Stream size : 42.3 KiB (0%)<br>
Language : Turco<br>
Default : Não<br>
Forced : Não<br>
Texto #37<br>
ID : 39<br>
Format : UTF-8<br>
Codec ID : S_TEXT/UTF8<br>
Codec ID/Info : UTF-8 Plain Text<br>
Duration : 2 h 10 min<br>
Bit rate : 74 b/s<br>
Frame rate : 0.203 FPS<br>
Count of elements : 1592<br>
Stream size : 71.1 KiB (0%)<br>
Language : Ucrâniano<br>
Default : Não<br>
Forced : Não<br>
Texto #38<br>
ID : 40<br>
Format : UTF-8<br>
Codec ID : S_TEXT/UTF8<br>
Codec ID/Info : UTF-8 Plain Text<br>
Duration : 2 h 10 min<br>
Bit rate : 50 b/s<br>
Frame rate : 0.176 FPS<br>
Count of elements : 1382<br>
Stream size : 48.5 KiB (0%)<br>
Language : Vietnamita<br>
Default : Não<br>
Forced : Não<br>
Texto #39<br>
ID : 41<br>
Format : UTF-8<br>
Codec ID : S_TEXT/UTF8<br>
Codec ID/Info : UTF-8 Plain Text<br>
Duration : 2 h 10 min<br>
Bit rate : 35 b/s<br>
Frame rate : 0.179 FPS<br>
Count of elements : 1408<br>
Stream size : 33.6 KiB (0%)<br>
Title : Traditional<br>
Language : Chinês<br>
Default : Não<br>
Forced : Não<br>
Menu<br>
00:00:00.000 : Chapter 01<br>
00:13:47.500 : Chapter 02<br>
00:26:30.000 : Chapter 03<br>
00:35:13.250 : Chapter 04<br>
00:44:38.750 : Chapter 05<br>
00:58:39.950 : Chapter 06<br>
01:07:16.200 : Chapter 07<br>
01:15:37.500 : Chapter 08<br>
01:26:27.350 : Chapter 09<br>
01:36:54.900 : Chapter 10<br>
01:47:10.920 : Chapter 11<br>
01:55:56.100 : Chapter 12<br>
02:07:05.000 : Chapter 13</div>
</div></div><br>
<div style="text-align: center">Thumbnail - Media:<br>
<img src="https://images2.imgbox.com/f1/04/NUy1myYR_o.jpg" class="bbCodeImage LbImage" alt="[​IMG]" data-url="https://images2.imgbox.com/f1/04/NUy1myYR_o.jpg" style=""><br>
<br>
<span style="color: #ff0000"><b><b>PASSWORD: sharemania.us</b></b></span><br>
<b><b><i><span style="color: #ff0000">Passwords are so that files last longer on the server!</span></i></b></b><br>
<br>
Download 1080p 10bit (4.1 GB):<br>
<div class="bbCodeBlock bbCodeVfcHH HiddenContent">
<div class="attribution type">Hidden Content:</div>
<blockquote>You must reply before you can see the hidden data contained here.</blockquote>
</div><b><b><b><i>If any link is down, please inform me by means of the replys; Thank you - Sebastian Swift<br>
Please do not type random letters when making a reply<br>
<br>
You can place an order in my profile, if I have it in my personal collection I can post it!</i></b></b></b>​</div>
<div class="messageTextEndMarker">&nbsp;</div>
</blockquote>
</article>]]></description>
                <author><![CDATA[sebastianswif13]]></author>
                </item>

                
                <item>
                <title><![CDATA[【Albums (lossless)】ALAC - Paulina Rubio | Border Girl [ALAC 16Bit/44.1kHz]]]></title>
                <link><![CDATA[https://sharemania.us/threads/paulina-rubio-border-girl-alac-16bit-44-1khz.244601/]]></link>
                <description><![CDATA[<article>
<blockquote class="messageText SelectQuoteContainer ugc baseHtml">
<div style="text-align: center"><img src="https://is1-ssl.mzstatic.com/image/thumb/Music124/v4/c7/3a/0d/c73a0de0-f450-b3ee-360b-552330dce3ff/06UMGIM15881.rgb.jpg/1425x1411bb.jpg" class="bbCodeImage LbImage" alt="[​IMG]" data-url="https://is1-ssl.mzstatic.com/image/thumb/Music124/v4/c7/3a/0d/c73a0de0-f450-b3ee-360b-552330dce3ff/06UMGIM15881.rgb.jpg/1425x1411bb.jpg" style=""><br>
<b><span style="color: #ff9999">Genre: Pop</span></b><br>
<br>
<div class="bbCodeBlock bbCodeVfcHH HiddenContent">
<div class="attribution type">Hidden Content:</div>
<blockquote>You must reply before you can see the hidden data contained here.</blockquote>
</div><br>
​</div>
<div class="messageTextEndMarker">&nbsp;</div>
</blockquote>
</article>]]></description>
                <author><![CDATA[TheMagicKingdom]]></author>
                </item>

                </channel></rss>